<svg xmlns="http://www.w3.org/2000/svg" width="24.716" height="24.225" viewBox="0 0 24.716 24.225"><path d="M6335.667-6532.251q0,2.423,0,4.846c0,.563-.143.708-.7.708q-1.573,0-3.145,0c-.479,0-.641-.167-.641-.65q0-4.917,0-9.833c0-.466.163-.635.625-.637q1.615-.006,3.23,0c.464,0,.625.168.626.637Q6335.67-6534.717,6335.667-6532.251Zm.842,8.712c.6,0,1.19.008,1.785,0a.856.856,0,0,0,.873-.765.85.85,0,0,0-.675-.941,1.793,1.793,0,0,0-.366-.021H6319.06c-1.237,0-2.474,0-3.711,0a.86.86,0,0,0-.881,1.03.908.908,0,0,0,.993.7h21.048ZM6325.84-6537l-4.186-3.386c-.368-.3-.731-.6-1.106-.885a.647.647,0,0,0-.792-.04.624.624,0,0,0-.287.709,1.247,1.247,0,0,0,.374.509q2.854,2.328,5.724,4.637a.728.728,0,0,0,1.191-.11l6.378-7.335,1.174-1.35c.074.052.13.086.18.127.334.278.661.564,1,.832a.5.5,0,0,0,.852-.35c.019-.13.029-.262.038-.394.068-1.027.131-2.055.205-3.081.034-.479-.25-.735-.714-.619l-3.263.816c-.236.06-.456.141-.516.417a.58.58,0,0,0,.271.606c.3.239.588.491.9.752l-7.212,8.3C6325.959-6536.912,6325.9-6536.953,6325.84-6537Zm-8.017,9.68c0,.44.186.622.62.623q1.614,0,3.229,0c.475,0,.652-.176.652-.646q0-3.1,0-6.2c0-.457-.176-.634-.631-.635q-1.6,0-3.2,0c-.507,0-.669.167-.669.685q0,1.529,0,3.059C6317.822-6529.4,6317.819-6528.359,6317.823-6527.321Zm7.262-3.908a.514.514,0,0,0-.582.571q-.007,1.686,0,3.373a.521.521,0,0,0,.6.586q1.644,0,3.288,0c.419,0,.612-.184.614-.6q.008-1.673,0-3.345c0-.4-.2-.584-.6-.586-.548,0-1.1,0-1.644,0S6325.643-6531.233,6325.085-6531.229Z" transform="translate(-6314.454 6547.761)" fill="#fff"/></svg>