<svg xmlns="http://www.w3.org/2000/svg" width="30.88" height="30.586" viewBox="0 0 30.88 30.586">
  <g id="Group_1142" data-name="Group 1142" transform="translate(-2743.738 -1333.194)">
    <path id="Path_16124" data-name="Path 16124" d="M2758.278,1362.112a2.031,2.031,0,0,1,1.8,0l2.716,1.537a1,1,0,0,0,1.381-.406l1.453-2.761a2.031,2.031,0,0,1,1.513-.973l3.116-.175a1,1,0,0,0,.942-1.088l-.27-3.109a2.031,2.031,0,0,1,.747-1.636l2.527-1.832a1,1,0,0,0,.2-1.424l-1.908-2.469a2.03,2.03,0,0,1-.256-1.781l1.135-2.907a1,1,0,0,0-.6-1.309l-2.94-1.046a2.031,2.031,0,0,1-1.178-1.36l-.616-3.059a1,1,0,0,0-1.211-.778l-3.039.71a2.031,2.031,0,0,1-1.726-.507l-2.173-2.24a1,1,0,0,0-1.439,0l-2.173,2.24a2.031,2.031,0,0,1-1.726.507l-3.039-.71a1,1,0,0,0-1.211.778l-.616,3.059a2.031,2.031,0,0,1-1.178,1.36l-2.94,1.046a1,1,0,0,0-.6,1.309l1.135,2.907a2.031,2.031,0,0,1-.256,1.781l-1.908,2.469a1,1,0,0,0,.2,1.424l2.527,1.832a2.032,2.032,0,0,1,.747,1.636l-.271,3.109a1,1,0,0,0,.943,1.088l3.116.175a2.031,2.031,0,0,1,1.513.973l1.453,2.761a1,1,0,0,0,1.381.406Z" fill="#0a9aea"/>
    <g id="Group_1141" data-name="Group 1141" transform="translate(2752.284 1343.242)">
      <path id="Path_16125" data-name="Path 16125" d="M2981.147,1617.507l-5.186-5.9,1.714-1.507,3.472,3.95,6.888-7.837,1.714,1.507Z" transform="translate(-2975.961 -1606.214)" fill="#fff"/>
    </g>
  </g>
</svg>
