<svg xmlns="http://www.w3.org/2000/svg" width="104.766" height="25.487" viewBox="0 0 104.766 25.487">
  <g id="Group_998" data-name="Group 998" transform="translate(6870.231 -2972.908)">
    <path id="Path_16032" data-name="Path 16032" d="M-6859.724,2972.908l-10.507,14.606h5.254l-1.975,10.88,11.477-15.128-5.515-.373Z" fill="#1956e2"/>
    <path id="Path_16033" data-name="Path 16033" d="M-6717.632,3040.534a7.394,7.394,0,0,1-2.4-.353,5.289,5.289,0,0,1-1.861-1.107,6.366,6.366,0,0,1-1.616-2.246,6.925,6.925,0,0,1-.57-2.782,5.02,5.02,0,0,1,.345-1.918,3.6,3.6,0,0,1,1.017-1.4,3.544,3.544,0,0,1,1.354-.684,8.165,8.165,0,0,1,2.065-.211h1.665l.691,2.447h-2a2.673,2.673,0,0,0-1.752.455,1.9,1.9,0,0,0-.526,1.506,3.677,3.677,0,0,0,1.133,2.842,4.4,4.4,0,0,0,3.1,1.044h.219l-.727,2.412Zm7.292,0-2.482,1.586a3.113,3.113,0,0,1-.434-1.237,15.915,15.915,0,0,1-.131-2.4v-2.193l-3.1-6.46h3.1l1.445,3.5,1.432-3.5h3.117l-3.117,6.46v2q0,.916.039,1.453A3.253,3.253,0,0,0-6710.34,3040.534Zm3.886-7.856h2.807v5.417h2a.964.964,0,0,0,.589-.148.525.525,0,0,0,.193-.444,1.84,1.84,0,0,0-.669-1.262,9.254,9.254,0,0,0-2.046-1.4,13.518,13.518,0,0,0,1.742-1.273q.529-.49.529-.822a.425.425,0,0,0-.194-.384,1.186,1.186,0,0,0-.617-.124h-4.838l.648-2.412h4.726a4.445,4.445,0,0,1,2.549.6,2.033,2.033,0,0,1,.857,1.784,2.682,2.682,0,0,1-.332,1.312,4.181,4.181,0,0,1-1.043,1.192,4.774,4.774,0,0,1,1.39,1.432,3.172,3.172,0,0,1,.479,1.657,2.75,2.75,0,0,1-.3,1.315,2.347,2.347,0,0,1-.9.92,3.209,3.209,0,0,1-1.157.38,16.2,16.2,0,0,1-2.285.113h-4.132Zm17.264-.465h-4.288v1.664h3.915l-.713,2.412h-3.2v1.834h4.648l-.77,2.412h-6.755v-10.706h6.516Zm7.927,3.73a24.968,24.968,0,0,0,1.481,2.455,16.868,16.868,0,0,0,1.615,2.01l-2.285,1.7a21.977,21.977,0,0,1-2.229-2.994,29.764,29.764,0,0,1-1.918-3.649,11,11,0,0,0,1.883-1.457,1.74,1.74,0,0,0,.6-1.11.586.586,0,0,0-.216-.483.967.967,0,0,0-.617-.173h-5.084l.648-2.412h5.015a3.9,3.9,0,0,1,2.5.716,2.419,2.419,0,0,1,.892,2,3.212,3.212,0,0,1-.567,1.84A5.636,5.636,0,0,1-6681.264,3035.942Zm-6.27-3.265h2.878v7.856h-2.878Zm10.17,0h2.877v5.388a3.35,3.35,0,0,0,2.317-1.224,3.95,3.95,0,0,0,.906-2.62,2.01,2.01,0,0,0-.5-1.471,1.95,1.95,0,0,0-1.45-.511h-4.647l.649-2.412h3.971a8.191,8.191,0,0,1,2.108.218,3.606,3.606,0,0,1,1.389.727,3.438,3.438,0,0,1,.992,1.4,5.263,5.263,0,0,1,.334,1.936,6.541,6.541,0,0,1-.55,2.638,6.2,6.2,0,0,1-1.544,2.158,5.936,5.936,0,0,1-2.1,1.245,9.023,9.023,0,0,1-2.839.384h-1.911Zm16.523-2.849h1.722l.648,2.412h-2.179a4.615,4.615,0,0,0-2.486.583,3.522,3.522,0,0,0-1.386,1.865h2.729v-2.01h2.892v7.856h-2.892v-3.378h-3.019a6.556,6.556,0,0,0,.316,1.717,7.7,7.7,0,0,0,.783,1.661l-2.284,1.5a11.076,11.076,0,0,1-1.291-2.648,8.654,8.654,0,0,1-.431-2.683,8.042,8.042,0,0,1,.512-2.877,6.377,6.377,0,0,1,1.442-2.278,5.449,5.449,0,0,1,2.084-1.294A8.564,8.564,0,0,1-6660.84,3029.828Zm9.966,2.447h-2.814a.791.791,0,0,0-.419.084.3.3,0,0,0-.131.275.465.465,0,0,0,.061.219,1.358,1.358,0,0,0,.2.268l2.342,2.617a4.769,4.769,0,0,1,.793,1.178,2.8,2.8,0,0,1,.258,1.163,2.438,2.438,0,0,1-.247,1.09,2.217,2.217,0,0,1-.691.829,2.508,2.508,0,0,1-.979.413,9.448,9.448,0,0,1-1.792.124h-2.468l-.706-2.468h3.117a.614.614,0,0,0,.378-.1.346.346,0,0,0,.13-.3.446.446,0,0,0-.06-.194,1.336,1.336,0,0,0-.159-.236l-2.56-2.856a3.373,3.373,0,0,1-.606-.987,2.925,2.925,0,0,1-.212-1.079,2.665,2.665,0,0,1,.128-.832,2.476,2.476,0,0,1,.373-.727,2.087,2.087,0,0,1,1-.716,5.8,5.8,0,0,1,1.812-.215h2.609Zm4.351-2.447v3.357h2.871v-3.357h2.877v10.706h-2.877v-4.88h-2.871v2.631q0,.994.036,1.5a3.159,3.159,0,0,0,.119.751l-2.481,1.586a3.127,3.127,0,0,1-.435-1.237,16.048,16.048,0,0,1-.131-2.4v-8.653Z" transform="translate(-124.69 -50.234)" fill="#fff"/>
  </g>
</svg>
