<svg xmlns="http://www.w3.org/2000/svg" width="16.295" height="16.325" viewBox="0 0 16.295 16.325">
  <path id="Path_16084" data-name="Path 16084" d="M4357.356-5215.087h-8.075a2.348,2.348,0,0,1-2.345-2.345v-8.076a2.348,2.348,0,0,1,2.345-2.345h8.075a2.348,2.348,0,0,1,2.345,2.345v8.076A2.348,2.348,0,0,1,4357.356-5215.087Zm-8.075-11.475a1.056,1.056,0,0,0-1.054,1.054v8.076a1.056,1.056,0,0,0,1.054,1.055h8.075a1.056,1.056,0,0,0,1.055-1.055v-8.076a1.056,1.056,0,0,0-1.055-1.054Zm11.6,2.269h-.468V-5223h.468a1.056,1.056,0,0,1,1.055,1.055v8.075a1.056,1.056,0,0,1-1.055,1.055h-8.075a1.055,1.055,0,0,1-1.054-1.055v-.5h-1.291v.5a2.348,2.348,0,0,0,2.345,2.345h8.075a2.348,2.348,0,0,0,2.345-2.345v-8.075A2.348,2.348,0,0,0,4360.886-5224.293Z" transform="translate(-4346.936 5227.852)" fill="#d1d1d1"/>
</svg>
