<svg xmlns="http://www.w3.org/2000/svg" width="32" height="32" viewBox="0 0 32 32">
  <g id="Group_1018" data-name="Group 1018" transform="translate(-1024 -19)">
    <path id="Path_16029" data-name="Path 16029" d="M32,16A16,16,0,1,1,16,0,16,16,0,0,1,32,16Z" transform="translate(1024 19)" fill="#1956e2" fill-opacity='0'/>
    <path id="Path_16027" data-name="Path 16027" d="M17.96,1.752A17.5,17.5,0,0,0,13.642.413a.066.066,0,0,0-.07.033,12.158,12.158,0,0,0-.538,1.1,16.152,16.152,0,0,0-4.85,0,11.143,11.143,0,0,0-.546-1.1.069.069,0,0,0-.07-.033A17.456,17.456,0,0,0,3.25,1.752a.061.061,0,0,0-.028.024A17.906,17.906,0,0,0,.087,13.852a.074.074,0,0,0,.028.05,17.6,17.6,0,0,0,5.3,2.678.069.069,0,0,0,.074-.025,12.6,12.6,0,0,0,1.084-1.763.067.067,0,0,0-.037-.093,11.615,11.615,0,0,1-1.655-.789.068.068,0,0,1-.007-.113c.111-.083.222-.17.329-.258a.066.066,0,0,1,.068-.009,12.547,12.547,0,0,0,10.662,0,.065.065,0,0,1,.069.008c.106.088.218.175.33.258a.068.068,0,0,1-.006.113,10.865,10.865,0,0,1-1.656.788.067.067,0,0,0-.036.094,14.1,14.1,0,0,0,1.083,1.762.067.067,0,0,0,.074.025A17.545,17.545,0,0,0,21.1,13.9a.068.068,0,0,0,.027-.049A17.788,17.788,0,0,0,17.988,1.777.054.054,0,0,0,17.96,1.752ZM7.09,11.442A2.039,2.039,0,0,1,5.183,9.3,2.028,2.028,0,0,1,7.09,7.165,2.017,2.017,0,0,1,9,9.3,2.028,2.028,0,0,1,7.09,11.442Zm7.05,0A2.039,2.039,0,0,1,12.233,9.3a2.028,2.028,0,0,1,1.907-2.138A2.017,2.017,0,0,1,16.046,9.3,2.022,2.022,0,0,1,14.139,11.442Z" transform="translate(1029.892 26.994)" fill="#E2E8F0"/>
  </g>
</svg>
