<svg xmlns="http://www.w3.org/2000/svg" width="20.534" height="20.528" viewBox="0 0 20.534 20.528"><g transform="translate(-171 73)"><path d="M175.268-63.227a.87.87,0,0,1,.87-.87h0l1.45,0a.871.871,0,0,1,.871.871h0v5.481c.163-.048.373-.1.6-.154a.726.726,0,0,0,.56-.707v-6.8a.872.872,0,0,1,.872-.872h1.452a.872.872,0,0,1,.871.871v6.31s.363-.147.718-.3a.728.728,0,0,0,.444-.669v-7.523a.871.871,0,0,1,.871-.871h1.452a.872.872,0,0,1,.872.871v6.195a17.034,17.034,0,0,0,3.548-3.33,1.463,1.463,0,0,0,.223-1.366A10.247,10.247,0,0,0,181.4-73,10.3,10.3,0,0,0,171-62.736a10.232,10.232,0,0,0,1.363,5.134,1.3,1.3,0,0,0,1.238.641c.275-.024.617-.058,1.024-.106a.726.726,0,0,0,.644-.72v-5.44" transform="translate(0 0)" fill="#d1d1d1"/><path d="M231.6,72.792a10.262,10.262,0,0,0,16.3-8.3c0-.236-.011-.47-.027-.7-3.749,5.592-10.673,8.206-16.272,9" transform="translate(-56.366 -127.229)" fill="#d1d1d1"/></g></svg>