<svg xmlns="http://www.w3.org/2000/svg" width="14.004" height="14" viewBox="360.998 1009 14.004 14"><g data-name="etherscan-logo-circle"><path d="M363.887 1021.66a6.969 6.969 0 0 0 3.03 1.256 6.998 6.998 0 0 0 8.085-6.916 7.051 7.051 0 0 0-.018-.48 14.105 14.105 0 0 1-7.163 5.18 20.562 20.562 0 0 1-3.078.82 20.618 20.618 0 0 1-.856.14Z" fill="#1956e2" fill-rule="evenodd" data-name="Path 2"/><path d="m364.505 1015.072.988.003a.594.594 0 0 1 .594.594v3.738a3.869 3.869 0 0 1 .09-.025l.152-.039a15.24 15.24 0 0 1 .17-.04.495.495 0 0 0 .38-.482v-4.637c0-.328.267-.594.595-.595h.99a.594.594 0 0 1 .595.595v4.303a14.602 14.602 0 0 0 .01-.004c.049-.02.255-.103.462-.19a28.44 28.44 0 0 0 .018-.008.496.496 0 0 0 .302-.456v-5.131a.594.594 0 0 1 .595-.594h.99a.594.594 0 0 1 .595.594v4.225c.82-.595 1.652-1.306 2.327-2.153a8.343 8.343 0 0 0 .092-.118.998.998 0 0 0 .205-.657.997.997 0 0 0-.053-.275 6.989 6.989 0 0 0-6.514-4.72 7.028 7.028 0 0 0-.094 0 7.023 7.023 0 0 0-6.996 7 6.988 6.988 0 0 0 0 .022 6.978 6.978 0 0 0 .93 3.48.885.885 0 0 0 .765.44.887.887 0 0 0 .079-.003 20.51 20.51 0 0 0 .149-.014c.157-.015.34-.034.549-.058a.495.495 0 0 0 .439-.492v-3.71a.594.594 0 0 1 .593-.593h.003Z" fill="#1956e2" fill-rule="evenodd" data-name="Path 1"/></g></svg>