<svg xmlns="http://www.w3.org/2000/svg" width="16.321" height="16.325" viewBox="0 0 16.321 16.325">
  <path id="Path_16128" data-name="Path 16128" d="M-967.514-1547.613q0-2.447,0-4.894a1.73,1.73,0,0,1,1.867-1.865c1.347,0,2.694,0,4.041,0a.7.7,0,0,1,.718.951.7.7,0,0,1-.707.445c-1.056,0-2.111,0-3.167,0h-.874c-.391,0-.48.087-.48.472q0,3.9,0,7.8,0,1.016,0,2.032c0,.319.1.425.417.425q4.947,0,9.895,0c.31,0,.414-.109.415-.427,0-1.376,0-2.753,0-4.129a.688.688,0,0,1,.509-.724.688.688,0,0,1,.857.5,1.451,1.451,0,0,1,.03.325q0,2,0,4a1.728,1.728,0,0,1-1.858,1.854q-4.915,0-9.829,0a1.709,1.709,0,0,1-1.774-1.29,2.35,2.35,0,0,1-.06-.562C-967.516-1544.335-967.514-1545.974-967.514-1547.613Zm13.93-8.062a1.1,1.1,0,0,0-.223.135q-3.888,3.883-7.771,7.771a2.363,2.363,0,0,0-.181.189.694.694,0,0,0,.434,1.125.77.77,0,0,0,.694-.283q3.905-3.912,7.813-7.822a.894.894,0,0,0,.122-.229l.1.079v.209q0,1.693,0,3.387c0,.4-.005.8,0,1.2a.668.668,0,0,0,.542.651c.475.1.85-.241.851-.786q0-3.135,0-6.271c0-.589-.264-.85-.857-.85H-956.2c-.714,0-1.427,0-2.141,0a.714.714,0,0,0-.749.513.7.7,0,0,0,.738.884c1.493,0,2.986,0,4.479,0h.228Z" transform="translate(967.515 1557.169)" fill="#d1d1d1"/>
</svg>
