<svg xmlns="http://www.w3.org/2000/svg" width="8.392" height="12.584" viewBox="0 0 8.392 12.584">
  <path id="Path_16094" data-name="Path 16094" d="M1478.98,1453.414a.842.842,0,0,1-.281.776c-1.024,1.021-2.042,2.049-3.072,3.065a6.8,6.8,0,0,1-.632.5h-.393a6.834,6.834,0,0,1-.631-.5c-1.034-1.021-2.058-2.051-3.084-3.08a.842.842,0,1,1,1.18-1.2c.572.566,1.139,1.138,1.708,1.707.045.046.093.089.181.173v-.267q0-4.213,0-8.425a1.466,1.466,0,0,1,.048-.425.836.836,0,0,1,1.624.17,2.388,2.388,0,0,1,.011.274q0,4.193,0,8.386v.288c.084-.081.133-.126.18-.174q.861-.861,1.722-1.721a.81.81,0,0,1,.866-.212A.8.8,0,0,1,1478.98,1453.414Z" transform="translate(1478.994 1457.751) rotate(180)" fill="#fd2f7a"/>
</svg>
