<svg xmlns="http://www.w3.org/2000/svg" width="17.829" height="19.447" viewBox="0 0 17.829 19.447">
  <path id="Path_16031" data-name="Path 16031" d="M-4336.955,2699.871h-10.781c0-.062-.012-.125-.012-.188v-17.059a2.187,2.187,0,0,1,2.219-2.2c2.146.021,4.293.007,6.44.006a2.042,2.042,0,0,1,1.2.373,2.158,2.158,0,0,1,.95,1.88q0,3.645,0,7.289v.178c.382,0,.744,0,1.106,0a2.094,2.094,0,0,1,1.641.789,2.18,2.18,0,0,1,.493,1.451c0,1.544,0,3.088,0,4.632,0,.08,0,.16.008.24a1.07,1.07,0,0,0,1.481.9,1.074,1.074,0,0,0,.664-1.079q0-3.777,0-7.555c0-.041,0-.082-.007-.125a2.723,2.723,0,0,1-3.52-1.352,2.646,2.646,0,0,1-.152-1.86,2.724,2.724,0,0,1,1.642-1.807l-2.256-2.257,1.153-1.163a.664.664,0,0,0,.07.1c.737.737,1.478,1.469,2.211,2.208.617.622,1.23,1.247,1.833,1.881a2.271,2.271,0,0,1,.531.966c.055.193.085.393.127.589v10.657a.981.981,0,0,0-.023.1,2.688,2.688,0,0,1-1.968,2.313c-.136.038-.274.065-.413.1h-.607a.233.233,0,0,0-.055-.023,2.488,2.488,0,0,1-1.072-.386,2.641,2.641,0,0,1-1.271-2.308c-.011-1.742,0-3.484,0-5.226v-.147h-1.61v.172q0,3.872,0,7.744C-4336.943,2699.754-4336.951,2699.812-4336.955,2699.871Zm-8.627-11.894h6.468V2682.6h-6.468Zm12.953-2.141a1.072,1.072,0,0,0-1.072,1.079,1.072,1.072,0,0,0,1.07,1.069,1.071,1.071,0,0,0,1.077-1.073A1.071,1.071,0,0,0-4332.629,2685.836Z" transform="translate(4347.748 -2680.424)" fill="#496489"/>
</svg>
