<svg xmlns="http://www.w3.org/2000/svg" width="17.944" height="18.695" viewBox="0 0 17.944 18.695">
  <path id="Path_16118" data-name="Path 16118" d="M5282.494-3209.227a3.327,3.327,0,0,1-.165.418q-.677,1.182-1.366,2.357a.672.672,0,0,1-.875.364q-.91-.233-1.818-.476a.475.475,0,0,0-.418.079q-.721.452-1.475.848a.473.473,0,0,0-.272.323c-.165.6-.339,1.207-.51,1.81a.642.642,0,0,1-.733.558q-1.376,0-2.753,0a.636.636,0,0,1-.689-.519c-.176-.61-.351-1.221-.513-1.835a.49.49,0,0,0-.286-.342c-.5-.263-.994-.546-1.474-.848a.453.453,0,0,0-.395-.075c-.606.161-1.212.316-1.819.473a.684.684,0,0,1-.9-.365q-.679-1.166-1.353-2.335a.65.65,0,0,1,.125-.914c.447-.455.9-.9,1.338-1.367a.519.519,0,0,0,.115-.325q.016-.913,0-1.826a.45.45,0,0,0-.111-.278c-.439-.461-.891-.911-1.337-1.366a.673.673,0,0,1-.12-.938q.669-1.158,1.342-2.312a.686.686,0,0,1,.9-.371c.606.158,1.213.314,1.819.475a.454.454,0,0,0,.4-.072c.487-.306.987-.593,1.5-.863a.446.446,0,0,0,.26-.3c.166-.613.338-1.225.512-1.836a.658.658,0,0,1,.722-.546q1.364,0,2.728,0a.653.653,0,0,1,.735.557c.17.6.342,1.206.506,1.811a.471.471,0,0,0,.272.323c.51.267,1,.573,1.5.85a.573.573,0,0,0,.365.076c.61-.143,1.214-.308,1.821-.468a.691.691,0,0,1,.914.376l1.341,2.313a.671.671,0,0,1-.115.918c-.452.462-.911.917-1.355,1.386a.488.488,0,0,0-.1.3q-.013.9,0,1.8a.482.482,0,0,0,.1.3c.45.475.92.931,1.368,1.408A2.457,2.457,0,0,1,5282.494-3209.227Zm-15.542,1.827c.643-.167,1.259-.323,1.871-.489a.763.763,0,0,1,.754.17,5.6,5.6,0,0,0,1.865,1.073.831.831,0,0,1,.58.641c.142.549.309,1.092.453,1.641a.2.2,0,0,0,.229.174c.527-.005,1.054-.007,1.581,0,.16,0,.216-.058.255-.208.14-.541.307-1.075.447-1.616a.831.831,0,0,1,.585-.636,5.428,5.428,0,0,0,1.823-1.044.813.813,0,0,1,.82-.188c.609.171,1.225.32,1.844.479.308-.531.611-1.041.9-1.562a.3.3,0,0,0-.063-.271c-.408-.433-.826-.857-1.247-1.277a.7.7,0,0,1-.2-.673,6.181,6.181,0,0,0,0-2.2.738.738,0,0,1,.219-.715c.418-.411.828-.831,1.233-1.255.053-.055.107-.18.08-.228-.3-.539-.613-1.069-.923-1.6-.633.164-1.242.315-1.846.482a.8.8,0,0,1-.8-.179,5.537,5.537,0,0,0-1.844-1.058.827.827,0,0,1-.58-.64c-.138-.542-.305-1.076-.441-1.618a.219.219,0,0,0-.262-.2c-.519.008-1.037.012-1.556,0-.174,0-.23.064-.271.22-.137.533-.3,1.06-.432,1.594a.834.834,0,0,1-.581.641,5.619,5.619,0,0,0-1.865,1.072.779.779,0,0,1-.779.164c-.611-.169-1.226-.32-1.85-.481-.294.511-.575,1.014-.873,1.507a.236.236,0,0,0,.054.345c.417.413.82.839,1.234,1.253a.7.7,0,0,1,.2.673,6.042,6.042,0,0,0-.007,2.179.776.776,0,0,1-.233.757q-.618.608-1.212,1.239a.289.289,0,0,0-.071.249C5266.331-3208.454,5266.638-3207.937,5266.951-3207.4Zm10.708-4.738a4.156,4.156,0,0,1-4.336,4.013,4.121,4.121,0,0,1-3.969-4.295,4.076,4.076,0,0,1,4.359-4.043A4.165,4.165,0,0,1,5277.659-3212.138Zm-4.125-3.065a2.907,2.907,0,0,0-2.938,2.912,2.909,2.909,0,0,0,2.864,2.91,2.905,2.905,0,0,0,2.95-2.9A2.9,2.9,0,0,0,5273.534-3215.2Z" transform="translate(-5264.55 3221.639)" fill="#fff"/>
</svg>
