<svg xmlns="http://www.w3.org/2000/svg" width="14.577" height="14.577" viewBox="0 0 14.577 14.577">
  <path id="Path_16035" data-name="Path 16035" d="M3116.064-458.273a7.283,7.283,0,0,0-7.3,7.264,7.292,7.292,0,0,0,7.29,7.312,7.29,7.29,0,0,0,7.287-7.267A7.279,7.279,0,0,0,3116.064-458.273Zm-.033,13.242a5.948,5.948,0,0,1-5.936-5.961,5.947,5.947,0,0,1,5.964-5.949,5.948,5.948,0,0,1,5.943,5.953A5.945,5.945,0,0,1,3116.032-445.031Zm.854-4.45c0,.544,0,1.088,0,1.632a.855.855,0,0,1-.681.831.826.826,0,0,1-.909-.486,1.032,1.032,0,0,1-.078-.391c-.006-1.077,0-2.154,0-3.231a.851.851,0,0,1,.827-.861.846.846,0,0,1,.844.858C3116.889-450.579,3116.886-450.03,3116.886-449.481Zm.164-4.484a1.011,1.011,0,0,1-1,1,1.011,1.011,0,0,1-1-1.012,1,1,0,0,1,1.006-.987A1,1,0,0,1,3117.05-453.965Z" transform="translate(-3108.761 458.273)" fill="#667ea0"/>
</svg>
