<svg xmlns="http://www.w3.org/2000/svg" width="32" height="32" viewBox="0 0 32 32">
  <g id="Group_1019" data-name="Group 1019" transform="translate(-1061 -19)">
    <path id="Path_16025" data-name="Path 16025" d="M32,16A16,16,0,1,1,16,0,16,16,0,0,1,32,16Z" transform="translate(1061 19)" fill="#1956e2"/>
    <path id="Path_16026" data-name="Path 16026" d="M40.726,31.348v1.031a.148.148,0,0,1-.089.135A5.127,5.127,0,0,0,38.754,33.8c-1.171,1.629-2.065,3.958-4.064,3.958H26.351A5.359,5.359,0,0,1,21,32.385v-.1a.143.143,0,0,1,.143-.143h4.649a.158.158,0,0,1,.151.176,1.587,1.587,0,0,0,.166.893,1.636,1.636,0,0,0,1.466.911h2.3v-1.8H27.6a.146.146,0,0,1-.118-.23c.025-.038.052-.077.082-.122.215-.306.523-.781.828-1.322a10.288,10.288,0,0,0,.574-1.146c.033-.071.059-.143.085-.214.044-.125.091-.242.124-.358.033-.1.059-.2.085-.3a4.64,4.64,0,0,0,.11-1.049c0-.143-.007-.293-.02-.436s-.026-.312-.046-.468c-.013-.138-.038-.275-.064-.417-.033-.209-.079-.416-.132-.625l-.018-.079c-.04-.143-.072-.279-.118-.422-.13-.449-.279-.886-.437-1.3-.057-.163-.123-.319-.189-.475-.1-.235-.2-.449-.286-.651-.046-.092-.085-.176-.125-.261s-.09-.194-.136-.286c-.033-.071-.071-.136-.1-.2l-.281-.519a.092.092,0,0,1,.1-.133l1.759.477h0l.007,0,.232.064.255.072.094.026V20.914a.909.909,0,0,1,.9-.914.894.894,0,0,1,.64.268.92.92,0,0,1,.265.646v1.552l.187.052a.142.142,0,0,1,.043.021l.2.148c.066.052.137.117.222.182.169.137.372.312.593.515.059.051.117.1.169.156.286.266.607.579.912.924.086.1.17.2.255.3s.176.209.255.312c.1.138.215.281.312.431.046.071.1.143.143.214.125.189.235.385.34.58.044.091.091.189.13.286a4.18,4.18,0,0,1,.268.794.991.991,0,0,1,.038.176v.013a1.513,1.513,0,0,1,.033.248,2.655,2.655,0,0,1-.046.82,2.939,2.939,0,0,1-.1.344c-.039.112-.079.228-.13.339a4.637,4.637,0,0,1-.354.671c-.044.079-.1.163-.149.242s-.117.163-.17.24c-.072.1-.149.2-.228.294a3.1,3.1,0,0,1-.222.279c-.11.13-.215.253-.325.372-.066.077-.137.156-.209.227s-.143.149-.209.215c-.11.11-.2.2-.279.266l-.181.166a.148.148,0,0,1-.1.036h-1.4v1.8h1.762a1.647,1.647,0,0,0,1.072-.4,12.833,12.833,0,0,0,1.09-1.072.133.133,0,0,1,.068-.041l4.867-1.407A.144.144,0,0,1,40.726,31.348Z" transform="translate(1046.72 5.4)" fill="#fff"/>
  </g>
</svg>
