<?xml version="1.0" encoding="UTF-8"?>
<!DOCTYPE svg PUBLIC "-//W3C//DTD SVG 1.1//EN" "http://www.w3.org/Graphics/SVG/1.1/DTD/svg11.dtd">
<svg xmlns="http://www.w3.org/2000/svg" version="1.1" width="153px" height="45px" style="shape-rendering:geometricPrecision; text-rendering:geometricPrecision; image-rendering:optimizeQuality; fill-rule:evenodd; clip-rule:evenodd" xmlns:xlink="http://www.w3.org/1999/xlink">
<g><path style="opacity:0.443" fill="#004392" d="M 12.5,18.5 C 12.5,19.1667 12.5,19.8333 12.5,20.5C 9.99632,19.3608 7.32965,18.6941 4.5,18.5C 4.5,19.5 4.5,20.5 4.5,21.5C 2.92606,19.8984 2.25939,17.8984 2.5,15.5C 6.0075,15.9205 9.34083,16.9205 12.5,18.5 Z"/></g>
<g><path style="opacity:1" fill="#fefffe" d="M 43.5,16.5 C 43.5,17.8333 43.5,19.1667 43.5,20.5C 36.9779,17.7311 34.4779,19.7311 36,26.5C 36.4169,27.756 37.2502,28.4226 38.5,28.5C 40.0618,28.2671 41.3951,27.6005 42.5,26.5C 43.3007,28.0418 43.634,29.7085 43.5,31.5C 39.7307,31.756 36.0641,31.4227 32.5,30.5C 32.3343,26.1539 32.501,21.8206 33,17.5C 36.3936,16.5442 39.8936,16.2108 43.5,16.5 Z"/></g>
<g><path style="opacity:0.331" fill="#000000" d="M 43.5,16.5 C 44.1667,16.5 44.8333,16.5 45.5,16.5C 45.1961,17.1499 44.8627,17.8165 44.5,18.5C 45.6302,19.6223 46.2969,20.9557 46.5,22.5C 43.7482,22.422 41.0816,22.2554 38.5,22C 37.3947,24.1203 37.3947,26.2869 38.5,28.5C 37.2502,28.4226 36.4169,27.756 36,26.5C 34.4779,19.7311 36.9779,17.7311 43.5,20.5C 43.5,19.1667 43.5,17.8333 43.5,16.5 Z"/></g>
<g><path style="opacity:1" fill="#fefffe" d="M 45.5,16.5 C 46.1667,16.5 46.8333,16.5 47.5,16.5C 47.9419,19.3321 49.2752,20.3321 51.5,19.5C 52.0478,17.4677 53.3812,16.4677 55.5,16.5C 55.4046,19.3576 54.2379,21.6909 52,23.5C 51.8184,26.2263 51.3184,28.8929 50.5,31.5C 49.8165,31.1373 49.1499,30.8039 48.5,30.5C 48.5,28.8333 48.5,27.1667 48.5,25.5C 48.573,23.9731 47.9063,22.9731 46.5,22.5C 46.2969,20.9557 45.6302,19.6223 44.5,18.5C 44.8627,17.8165 45.1961,17.1499 45.5,16.5 Z"/></g>
<g><path style="opacity:0.167" fill="#000000" d="M 47.5,16.5 C 49.0301,17.2112 50.3634,18.2112 51.5,19.5C 49.2752,20.3321 47.9419,19.3321 47.5,16.5 Z"/></g>
<g><path style="opacity:0.327" fill="#000000" d="M 55.5,16.5 C 55.8333,16.5 56.1667,16.5 56.5,16.5C 56.4142,17.4959 56.7476,18.3292 57.5,19C 59.2556,19.2022 60.9223,19.7022 62.5,20.5C 62.3764,21.1067 62.0431,21.44 61.5,21.5C 59.5853,21.2155 57.9187,21.5489 56.5,22.5C 56.5,22.8333 56.5,23.1667 56.5,23.5C 55.5416,23.9528 54.7083,24.6195 54,25.5C 53.5026,28.146 53.3359,30.8127 53.5,33.5C 50.715,34.0838 49.0483,33.0838 48.5,30.5C 49.1499,30.8039 49.8165,31.1373 50.5,31.5C 51.3184,28.8929 51.8184,26.2263 52,23.5C 54.2379,21.6909 55.4046,19.3576 55.5,16.5 Z"/></g>
<g><path style="opacity:1" fill="#fefffe" d="M 56.5,16.5 C 59.5,16.5 62.5,16.5 65.5,16.5C 66.8237,21.0313 67.3237,25.6979 67,30.5C 63.6064,31.4558 60.1064,31.7892 56.5,31.5C 56.5,30.5 56.5,29.5 56.5,28.5C 59.0593,28.8016 61.3926,28.4682 63.5,27.5C 64.7383,27.19 64.7383,26.69 63.5,26C 61.0796,25.7096 58.7463,25.2096 56.5,24.5C 56.5,24.1667 56.5,23.8333 56.5,23.5C 56.5,23.1667 56.5,22.8333 56.5,22.5C 58.4147,22.7845 60.0813,22.4511 61.5,21.5C 62.0431,21.44 62.3764,21.1067 62.5,20.5C 60.9223,19.7022 59.2556,19.2022 57.5,19C 56.7476,18.3292 56.4142,17.4959 56.5,16.5 Z"/></g>
<g><path style="opacity:0.304" fill="#000000" d="M 65.5,16.5 C 66.9408,18.7242 68.2741,21.0576 69.5,23.5C 69.2317,26.1194 69.565,28.6194 70.5,31C 73.8168,31.4983 77.1501,31.665 80.5,31.5C 80.634,29.7085 80.3007,28.0418 79.5,26.5C 80.609,26.5569 81.609,26.8902 82.5,27.5C 82.2222,29.3464 82.8888,30.6798 84.5,31.5C 85.1321,29.2632 86.4654,27.5965 88.5,26.5C 89.9185,27.0047 90.5852,28.0047 90.5,29.5C 88.0882,29.6941 87.0882,31.0274 87.5,33.5C 79.2428,33.346 70.9095,33.346 62.5,33.5C 60.0478,33.4609 58.0478,32.7943 56.5,31.5C 60.1064,31.7892 63.6064,31.4558 67,30.5C 67.3237,25.6979 66.8237,21.0313 65.5,16.5 Z"/></g>
<g><path style="opacity:1" fill="#fefffe" d="M 80.5,16.5 C 80.5,17.8333 80.5,19.1667 80.5,20.5C 73.9779,17.7311 71.4779,19.7311 73,26.5C 73.4169,27.756 74.2502,28.4226 75.5,28.5C 76.4916,28.6716 77.1583,28.3382 77.5,27.5C 78.1667,27.5 78.5,27.1667 78.5,26.5C 78.8333,26.5 79.1667,26.5 79.5,26.5C 80.3007,28.0418 80.634,29.7085 80.5,31.5C 77.1501,31.665 73.8168,31.4983 70.5,31C 69.565,28.6194 69.2317,26.1194 69.5,23.5C 69.2436,21.2075 69.5769,19.0408 70.5,17C 73.8168,16.5017 77.1501,16.335 80.5,16.5 Z"/></g>
<g><path style="opacity:0.306" fill="#000000" d="M 80.5,16.5 C 81.1667,16.5 81.8333,16.5 82.5,16.5C 82.4142,17.4959 82.7476,18.3292 83.5,19C 85.5,19.3333 87.5,19.6667 89.5,20C 90.7383,20.69 90.7383,21.19 89.5,21.5C 87.2075,21.7564 85.0408,21.4231 83,20.5C 82.5357,21.0944 82.369,21.7611 82.5,22.5C 81.1667,22.5 79.8333,22.5 78.5,22.5C 78.5,23.8333 78.5,25.1667 78.5,26.5C 78.5,27.1667 78.1667,27.5 77.5,27.5C 76.5084,27.3284 75.8417,27.6618 75.5,28.5C 74.2502,28.4226 73.4169,27.756 73,26.5C 71.4779,19.7311 73.9779,17.7311 80.5,20.5C 80.5,19.1667 80.5,17.8333 80.5,16.5 Z"/></g>
<g><path style="opacity:1" fill="#fefffe" d="M 82.5,16.5 C 86.1667,16.5 89.8333,16.5 93.5,16.5C 93.7399,19.5788 93.4066,22.5788 92.5,25.5C 94.1561,27.4122 94.4895,29.4122 93.5,31.5C 92.4822,30.8075 91.4822,30.1408 90.5,29.5C 90.5852,28.0047 89.9185,27.0047 88.5,26.5C 86.4654,27.5965 85.1321,29.2632 84.5,31.5C 82.8888,30.6798 82.2222,29.3464 82.5,27.5C 82.5,25.8333 82.5,24.1667 82.5,22.5C 85.0593,22.8016 87.3926,22.4682 89.5,21.5C 90.7383,21.19 90.7383,20.69 89.5,20C 87.5,19.6667 85.5,19.3333 83.5,19C 82.7476,18.3292 82.4142,17.4959 82.5,16.5 Z"/></g>
<g><path style="opacity:0.294" fill="#000000" d="M 93.5,16.5 C 95.1307,20.2325 96.1307,24.2325 96.5,28.5C 96.4142,29.4959 96.7476,30.3292 97.5,31C 100.993,32.0037 104.159,31.5037 107,29.5C 108.022,24.8711 107.522,20.5377 105.5,16.5C 107.017,16.5106 108.184,17.1772 109,18.5C 109.667,22.8333 109.667,27.1667 109,31.5C 108.5,32 108,32.5 107.5,33C 103.016,33.2635 98.6822,33.4302 94.5,33.5C 92.1517,33.1517 90.8184,31.8184 90.5,29.5C 91.4822,30.1408 92.4822,30.8075 93.5,31.5C 94.4895,29.4122 94.1561,27.4122 92.5,25.5C 93.4066,22.5788 93.7399,19.5788 93.5,16.5 Z M 104.5,21.5 C 105.01,24.3878 104.344,26.7211 102.5,28.5C 101.489,26.5976 101.322,24.5976 102,22.5C 102.671,21.7476 103.504,21.4142 104.5,21.5 Z"/></g>
<g><path style="opacity:1" fill="#fefffe" d="M 105.5,16.5 C 107.522,20.5377 108.022,24.8711 107,29.5C 104.159,31.5037 100.993,32.0037 97.5,31C 96.7476,30.3292 96.4142,29.4959 96.5,28.5C 96.3347,24.8183 96.5014,21.1516 97,17.5C 99.7191,16.5562 102.552,16.2229 105.5,16.5 Z M 104.5,21.5 C 105.01,24.3878 104.344,26.7211 102.5,28.5C 101.489,26.5976 101.322,24.5976 102,22.5C 102.671,21.7476 103.504,21.4142 104.5,21.5 Z"/></g>
<g><path style="opacity:1" fill="#fefffe" d="M 121.5,16.5 C 121.827,21.544 121.494,26.544 120.5,31.5C 119.817,31.1373 119.15,30.8039 118.5,30.5C 118.5,29.5 118.5,28.5 118.5,27.5C 118.5,25.8333 118.5,24.1667 118.5,22.5C 118.5,22.1667 118.5,21.8333 118.5,21.5C 117.545,19.2901 116.045,18.9568 114,20.5C 113.825,24.211 113.325,27.8776 112.5,31.5C 111.817,31.1373 111.15,30.8039 110.5,30.5C 110.334,26.1539 110.501,21.8206 111,17.5C 114.394,16.5442 117.894,16.2108 121.5,16.5 Z"/></g>
<g><path style="opacity:0.309" fill="#000000" d="M 121.5,16.5 C 122.492,16.3284 123.158,16.6618 123.5,17.5C 123.337,19.8568 123.503,22.1902 124,24.5C 126.473,25.1197 128.973,25.7864 131.5,26.5C 131.376,27.1067 131.043,27.44 130.5,27.5C 129.508,27.3284 128.842,27.6618 128.5,28.5C 126.938,28.2671 125.605,27.6005 124.5,26.5C 123.833,26.5 123.5,26.8333 123.5,27.5C 123.33,28.8221 123.663,29.9887 124.5,31C 127.817,31.4983 131.15,31.665 134.5,31.5C 134.5,28.5 134.5,25.5 134.5,22.5C 133.5,22.5 132.5,22.5 131.5,22.5C 130.833,21.1667 130.167,21.1667 129.5,22.5C 127.255,22.4588 126.588,21.6255 127.5,20C 129.847,19.6664 132.181,19.833 134.5,20.5C 134.5,19.1667 134.5,17.8333 134.5,16.5C 135.492,16.3284 136.158,16.6618 136.5,17.5C 136.334,21.8461 136.501,26.1794 137,30.5C 137.414,30.9574 137.914,31.2907 138.5,31.5C 138.999,28.7827 140.165,26.4494 142,24.5C 144.363,24.3315 145.863,25.6648 146.5,28.5C 142.082,26.9134 140.415,28.58 141.5,33.5C 134.831,33.3893 128.164,33.3893 121.5,33.5C 119.484,33.4841 118.484,32.4841 118.5,30.5C 119.15,30.8039 119.817,31.1373 120.5,31.5C 121.494,26.544 121.827,21.544 121.5,16.5 Z"/></g>
<g><path style="opacity:1" fill="#fefffe" d="M 134.5,16.5 C 134.5,17.8333 134.5,19.1667 134.5,20.5C 132.181,19.833 129.847,19.6664 127.5,20C 126.588,21.6255 127.255,22.4588 129.5,22.5C 130.167,22.5 130.833,22.5 131.5,22.5C 132.5,22.5 133.5,22.5 134.5,22.5C 134.5,25.5 134.5,28.5 134.5,31.5C 131.15,31.665 127.817,31.4983 124.5,31C 123.663,29.9887 123.33,28.8221 123.5,27.5C 124.167,27.5 124.5,27.1667 124.5,26.5C 125.605,27.6005 126.938,28.2671 128.5,28.5C 129.492,28.6716 130.158,28.3382 130.5,27.5C 131.043,27.44 131.376,27.1067 131.5,26.5C 128.973,25.7864 126.473,25.1197 124,24.5C 123.503,22.1902 123.337,19.8568 123.5,17.5C 127.064,16.5773 130.731,16.244 134.5,16.5 Z"/></g>
<g><path style="opacity:1" fill="#f9f9f9" d="M 139.5,16.5 C 139.031,19.3933 140.031,21.3933 142.5,22.5C 143.552,22.6495 144.552,22.4828 145.5,22C 145.88,19.6742 146.88,17.8409 148.5,16.5C 149.607,21.0815 149.773,25.7481 149,30.5C 148.329,31.2524 147.496,31.5858 146.5,31.5C 146.5,30.5 146.5,29.5 146.5,28.5C 145.863,25.6648 144.363,24.3315 142,24.5C 140.165,26.4494 138.999,28.7827 138.5,31.5C 137.914,31.2907 137.414,30.9574 137,30.5C 136.501,26.1794 136.334,21.8461 136.5,17.5C 137.391,16.8902 138.391,16.5569 139.5,16.5 Z"/></g>
<g><path style="opacity:0.263" fill="#000000" d="M 139.5,16.5 C 141.379,17.8952 142.379,19.8952 142.5,22.5C 140.031,21.3933 139.031,19.3933 139.5,16.5 Z"/></g>
<g><path style="opacity:0.305" fill="#000000" d="M 148.5,16.5 C 149.496,16.4142 150.329,16.7476 151,17.5C 151.667,22.5 151.667,27.5 151,32.5C 148.955,34.0432 147.455,33.7099 146.5,31.5C 147.496,31.5858 148.329,31.2524 149,30.5C 149.773,25.7481 149.607,21.0815 148.5,16.5 Z"/></g>
<g><path style="opacity:0.718" fill="#0183a3" d="M 21.5,20.5 C 20.2058,19.7101 19.0391,18.7101 18,17.5C 17.044,18.5786 16.2106,19.7453 15.5,21C 14.4232,21.4696 13.4232,21.3029 12.5,20.5C 12.5,19.8333 12.5,19.1667 12.5,18.5C 14.2554,17.9278 15.9221,17.0945 17.5,16C 19.4727,15.5045 21.4727,15.3379 23.5,15.5C 23.5979,17.5529 22.9313,19.2196 21.5,20.5 Z"/></g>
<g><path style="opacity:0.386" fill="#000000" d="M 104.5,21.5 C 103.504,21.4142 102.671,21.7476 102,22.5C 101.322,24.5976 101.489,26.5976 102.5,28.5C 101.504,28.5858 100.671,28.2524 100,27.5C 99.3333,25.1667 99.3333,22.8333 100,20.5C 102.045,18.9568 103.545,19.2901 104.5,21.5 Z"/></g>
<g><path style="opacity:0.338" fill="#000000" d="M 118.5,21.5 C 117.508,21.3284 116.842,21.6618 116.5,22.5C 113.875,23.4657 113.875,24.4657 116.5,25.5C 117.386,24.675 117.719,23.675 117.5,22.5C 117.833,22.5 118.167,22.5 118.5,22.5C 118.5,24.1667 118.5,25.8333 118.5,27.5C 117.5,27.5 116.5,27.5 115.5,27.5C 115.5,29.5 115.5,31.5 115.5,33.5C 112.715,34.0838 111.048,33.0838 110.5,30.5C 111.15,30.8039 111.817,31.1373 112.5,31.5C 113.325,27.8776 113.825,24.211 114,20.5C 116.045,18.9568 117.545,19.2901 118.5,21.5 Z"/></g>
<g><path style="opacity:1" fill="#0166e0" d="M 21.5,20.5 C 21.5,21.1667 21.5,21.8333 21.5,22.5C 21.5,23.8333 21.5,25.1667 21.5,26.5C 21.87,30.1859 20.5367,31.1859 17.5,29.5C 17.1667,29.5 16.8333,29.5 16.5,29.5C 12.9576,26.2877 10.291,26.9544 8.5,31.5C 7.83333,31.1667 7.16667,30.8333 6.5,30.5C 6.5,29.1667 6.5,27.8333 6.5,26.5C 6.57298,24.9731 5.90632,23.9731 4.5,23.5C 4.5,22.8333 4.5,22.1667 4.5,21.5C 4.5,20.5 4.5,19.5 4.5,18.5C 7.32965,18.6941 9.99632,19.3608 12.5,20.5C 13.4232,21.3029 14.4232,21.4696 15.5,21C 16.2106,19.7453 17.044,18.5786 18,17.5C 19.0391,18.7101 20.2058,19.7101 21.5,20.5 Z"/></g>
<g><path style="opacity:0.114" fill="#000000" d="M 46.5,22.5 C 47.9063,22.9731 48.573,23.9731 48.5,25.5C 47.0937,25.0269 46.427,24.0269 46.5,22.5 Z"/></g>
<g><path style="opacity:1" fill="#fefffe" d="M 76.5,22.5 C 76.506,25.5476 75.506,26.0476 73.5,24C 74.2438,22.9614 75.2438,22.4614 76.5,22.5 Z"/></g>
<g><path style="opacity:1" fill="#fefffe" d="M 116.5,22.5 C 116.833,22.5 117.167,22.5 117.5,22.5C 117.719,23.675 117.386,24.675 116.5,25.5C 113.875,24.4657 113.875,23.4657 116.5,22.5 Z"/></g>
<g><path style="opacity:0.121" fill="#025d75" d="M 4.5,23.5 C 5.90632,23.9731 6.57298,24.9731 6.5,26.5C 5.17793,26.33 4.01127,26.6634 3,27.5C 2.15579,25.5372 2.65579,24.2039 4.5,23.5 Z"/></g>
<g><path style="opacity:0.288" fill="#000000" d="M 56.5,24.5 C 58.7463,25.2096 61.0796,25.7096 63.5,26C 64.7383,26.69 64.7383,27.19 63.5,27.5C 61.4727,27.6621 59.4727,27.4955 57.5,27C 56.7476,26.3292 56.4142,25.4959 56.5,24.5 Z"/></g>
<g><path style="opacity:0.267" fill="#025e79" d="M 21.5,22.5 C 23.3792,23.3414 25.3792,23.6747 27.5,23.5C 27.5323,25.6188 26.5323,26.9522 24.5,27.5C 23.391,27.4431 22.391,27.1098 21.5,26.5C 21.5,25.1667 21.5,23.8333 21.5,22.5 Z"/></g>
<g><path style="opacity:0.285" fill="#000000" d="M 42.5,26.5 C 43.4959,26.4142 44.3292,26.7476 45,27.5C 45.4955,29.4727 45.6621,31.4727 45.5,33.5C 41.4862,33.6655 37.4862,33.4988 33.5,33C 32.7476,32.3292 32.4142,31.4959 32.5,30.5C 36.0641,31.4227 39.7307,31.756 43.5,31.5C 43.634,29.7085 43.3007,28.0418 42.5,26.5 Z"/></g>
<g><path style="opacity:1" fill="#01b9e4" d="M 16.5,29.5 C 13.9544,31.7706 10.9544,32.9372 7.5,33C 8.05596,32.6174 8.38929,32.1174 8.5,31.5C 10.291,26.9544 12.9576,26.2877 16.5,29.5 Z"/></g>
<g><path style="opacity:0.027" fill="#00428f" d="M 21.5,26.5 C 22.391,27.1098 23.391,27.4431 24.5,27.5C 24.8769,29.258 25.5435,30.9246 26.5,32.5C 26.2907,33.086 25.9574,33.586 25.5,34C 22.5872,34.0484 19.9206,33.2151 17.5,31.5C 17.5,30.8333 17.5,30.1667 17.5,29.5C 20.5367,31.1859 21.87,30.1859 21.5,26.5 Z"/></g>
<g><path style="opacity:0.103" fill="#007996" d="M 16.5,29.5 C 16.8333,29.5 17.1667,29.5 17.5,29.5C 17.5,30.1667 17.5,30.8333 17.5,31.5C 14.4671,33.6831 11.1338,35.3498 7.5,36.5C 6.83333,36.1667 6.16667,35.8333 5.5,35.5C 6.30937,33.9291 6.64271,32.2624 6.5,30.5C 7.16667,30.8333 7.83333,31.1667 8.5,31.5C 8.38929,32.1174 8.05596,32.6174 7.5,33C 10.9544,32.9372 13.9544,31.7706 16.5,29.5 Z"/></g>
</svg>
