<svg xmlns="http://www.w3.org/2000/svg" width="23.022" height="18.355" viewBox="0 0 23.022 18.355">
  <path id="Path_16126" data-name="Path 16126" d="M11.511,29.422a3.578,3.578,0,1,1,3.578-3.578A3.578,3.578,0,0,1,11.511,29.422ZM9.955,25.844a1.556,1.556,0,1,0,1.556-1.556A1.556,1.556,0,0,0,9.955,25.844ZM0,25.849,6.844,19h9.333l6.844,6.849L11.511,37.355Zm16.8-2.494a7.479,7.479,0,0,0-10.578,0L3.733,25.844l2.489,2.489a7.48,7.48,0,0,0,10.578,0l2.489-2.489Z" transform="translate(0 -19)" fill="#d1d1d1" fill-rule="evenodd"/>
</svg>
