<svg xmlns="http://www.w3.org/2000/svg" width="23" height="23" viewBox="0 0 23 23">
  <g id="Group_1172" data-name="Group 1172" transform="translate(-249 -288)">
    <g id="Group_1171" data-name="Group 1171">
      <rect id="Rectangle_748" data-name="Rectangle 748" width="23" height="23" rx="11.5" transform="translate(249 288)" fill="#5c86c3"/>
    </g>
    <path id="Path_16061" data-name="Path 16061" d="M19.842,26.135l.055-.087,3.34-5.225a.114.114,0,0,1,.2.015,7.117,7.117,0,0,1,.814,3.774,5.9,5.9,0,0,1-.657,1.437c-.038.072-.08.144-.125.212a.114.114,0,0,1-.1.05H19.939A.114.114,0,0,1,19.842,26.135Zm14.888.971v.827a.119.119,0,0,1-.071.108,4.111,4.111,0,0,0-1.512,1.029c-.939,1.307-1.657,3.176-3.261,3.176H23.194A4.3,4.3,0,0,1,18.9,27.938v-.076a.115.115,0,0,1,.115-.115h3.731a.127.127,0,0,1,.121.141A1.275,1.275,0,0,0,23,28.6a1.313,1.313,0,0,0,1.177.731h1.847V27.893H24.2a.118.118,0,0,1-.1-.185c.02-.031.042-.062.066-.1.173-.245.419-.627.665-1.061a8.274,8.274,0,0,0,.46-.919c.027-.057.048-.115.069-.171.036-.1.072-.194.1-.288s.048-.162.069-.24a3.723,3.723,0,0,0,.088-.842c0-.115-.005-.235-.016-.35s-.021-.251-.037-.376-.031-.22-.052-.335c-.026-.167-.063-.334-.106-.5l-.014-.063c-.032-.115-.058-.224-.1-.339-.1-.36-.224-.711-.351-1.039-.046-.131-.1-.256-.152-.381-.078-.189-.157-.36-.229-.522-.037-.074-.069-.141-.1-.21s-.072-.156-.109-.23c-.027-.057-.057-.11-.078-.162l-.226-.417a.074.074,0,0,1,.083-.107l1.411.383h.009l.186.052.2.058.075.021v-.839A.729.729,0,0,1,26.749,18a.716.716,0,0,1,.513.215.737.737,0,0,1,.213.518v1.245l.15.042a.12.12,0,0,1,.034.017l.157.119c.053.042.11.094.178.146.136.11.3.251.476.413.048.041.094.083.136.126.23.214.487.464.732.741.068.078.136.157.2.24s.141.168.2.251c.083.111.173.225.251.346.037.057.079.115.115.171.1.152.189.309.273.466.036.072.073.152.1.23a3.351,3.351,0,0,1,.215.637.8.8,0,0,1,.031.141v.01a1.241,1.241,0,0,1,.026.2,2.135,2.135,0,0,1-.037.658,2.43,2.43,0,0,1-.078.276c-.032.09-.063.183-.1.272a3.681,3.681,0,0,1-.284.538c-.035.063-.078.13-.12.194s-.094.131-.136.193c-.058.079-.12.162-.183.236a2.529,2.529,0,0,1-.178.224c-.088.1-.173.2-.261.3-.053.062-.109.125-.167.182s-.115.12-.167.173c-.088.088-.162.157-.224.214l-.145.133a.118.118,0,0,1-.078.029H27.474v1.442h1.414a1.322,1.322,0,0,0,.86-.318,10.306,10.306,0,0,0,.875-.86.108.108,0,0,1,.054-.033L34.583,27A.115.115,0,0,1,34.729,27.106Z" transform="translate(233.686 274.377)" fill="#244677"/>
  </g>
</svg>
