<svg xmlns="http://www.w3.org/2000/svg" width="38" height="20" viewBox="1235.586 1219.377 15.829 14.246"><path d="M1242.238 1220.817h-.004l-1.411-.382a.074.074 0 0 0-.09.093.076.076 0 0 0 .006.013l.226.417a.655.655 0 0 0 .009.021c.02.046.046.092.069.142a6.862 6.862 0 0 1 .016.032 7.218 7.218 0 0 1 .093.197c.018.04.036.079.056.119a5.726 5.726 0 0 0 .044.091c.073.162.152.334.23.522a6.923 6.923 0 0 1 .152.382 12.744 12.744 0 0 1 .415 1.265 12.984 12.984 0 0 0 .03.113l.015.063a6.688 6.688 0 0 1 .059.252 4.664 4.664 0 0 1 .046.25 4.757 4.757 0 0 1 .045.275 2.14 2.14 0 0 1 .007.06c.016.125.032.25.037.376a3.804 3.804 0 0 1 .012.174 3.855 3.855 0 0 1 .004.175 4.682 4.682 0 0 1-.001.11 3.61 3.61 0 0 1-.088.732 13.738 13.738 0 0 1-.037.137 2.248 2.248 0 0 1-.031.103 1.68 1.68 0 0 1-.02.063c-.02.064-.044.128-.069.195a6.56 6.56 0 0 0-.01.03 5.246 5.246 0 0 1-.032.085 1.459 1.459 0 0 1-.037.086 8.274 8.274 0 0 1-.46.92 13.755 13.755 0 0 1-.014.024c-.24.423-.481.795-.65 1.036a12.41 12.41 0 0 1-.035.05 2.737 2.737 0 0 0-.032.048.118.118 0 0 0 .02.156.113.113 0 0 0 .075.028h1.826v1.442h-1.847a1.313 1.313 0 0 1-1.177-.73 1.282 1.282 0 0 1-.14-.574c0-.048.002-.095.007-.143.007-.073-.047-.141-.121-.141h-3.73a.115.115 0 0 0-.115.115v.076a4.3 4.3 0 0 0 4.293 4.308h6.692c1.283 0 2-1.196 2.715-2.344a15.438 15.438 0 0 1 .546-.832 1.505 1.505 0 0 1 .133-.16c.36-.376.957-.678 1.26-.817a5.611 5.611 0 0 1 .119-.052.119.119 0 0 0 .07-.108v-.827a.115.115 0 0 0-.141-.112.115.115 0 0 0-.004.001l-3.906 1.129a.108.108 0 0 0-.054.033 10.7 10.7 0 0 1-.132.143 10.31 10.31 0 0 1-.7.679 10.987 10.987 0 0 1-.043.038 1.322 1.322 0 0 1-.86.318h-1.414v-1.442h1.124c.029 0 .056-.01.078-.029l.145-.133a9.754 9.754 0 0 0 .004-.004 6.76 6.76 0 0 0 .156-.147 6.326 6.326 0 0 0 .064-.063c.053-.053.11-.11.167-.172a2.502 2.502 0 0 0 .14-.15 4.546 4.546 0 0 0 .028-.033 5.872 5.872 0 0 0 .13-.145 16.423 16.423 0 0 0 .131-.153 2.529 2.529 0 0 0 .178-.224 3.255 3.255 0 0 0 .132-.167 9.185 9.185 0 0 0 .052-.07 8.103 8.103 0 0 1 .091-.129c.015-.02.03-.041.044-.063a3.591 3.591 0 0 0 .06-.093l.009-.013a2.512 2.512 0 0 0 .051-.088 3.68 3.68 0 0 0 .284-.538 2.025 2.025 0 0 0 .062-.152 11.437 11.437 0 0 0 .042-.12 3.021 3.021 0 0 0 .044-.137 2.068 2.068 0 0 0 .034-.138 2.111 2.111 0 0 0 .047-.445 2.22 2.22 0 0 0-.01-.213c-.005-.07-.01-.136-.026-.2v-.01a.704.704 0 0 0-.001-.01.798.798 0 0 0-.013-.07.786.786 0 0 0-.017-.061 3.351 3.351 0 0 0-.215-.637 2.56 2.56 0 0 0-.016-.04 3.597 3.597 0 0 0-.066-.144 5.115 5.115 0 0 0-.022-.046 5.843 5.843 0 0 0-.273-.466 2.43 2.43 0 0 0-.057-.085 18.366 18.366 0 0 0-.008-.013 4.038 4.038 0 0 1-.05-.073 4.03 4.03 0 0 0-.16-.225 530.828 530.828 0 0 1-.09-.12 5.449 5.449 0 0 0-.145-.178 8.594 8.594 0 0 1-.06-.074 10.08 10.08 0 0 0-.102-.121 9.882 9.882 0 0 0-.102-.118 10.84 10.84 0 0 0-.733-.742 1.703 1.703 0 0 0-.002-.002 2.44 2.44 0 0 0-.133-.123 16.07 16.07 0 0 0-.162-.146l-.151-.131a7.26 7.26 0 0 0-.164-.136c-.068-.052-.124-.103-.176-.145a1.679 1.679 0 0 0-.002-.001 9.948 9.948 0 0 1-.043-.033l-.114-.086a.112.112 0 0 0-.028-.015.2.2 0 0 0-.006-.002l-.15-.043v-1.245a.748.748 0 0 0-.003-.068.738.738 0 0 0-.21-.45.716.716 0 0 0-.513-.215.73.73 0 0 0-.725.733v.84l-.075-.022-.205-.058-.186-.051m-5.716 6.693.056-.087 3.34-5.225a.114.114 0 0 1 .04-.038.114.114 0 0 1 .147.03.116.116 0 0 1 .013.022 13.237 13.237 0 0 1 .52 1.353c.26.815.414 1.63.326 2.251a1.992 1.992 0 0 1-.032.17c-.075.31-.25.703-.464 1.097a9.708 9.708 0 0 1-.193.34c-.038.072-.08.144-.125.212a.114.114 0 0 1-.095.05h-3.435a.115.115 0 0 1-.067-.02.113.113 0 0 1-.03-.155Z" fill="#E2E8F0" fill-rule="evenodd" data-name="Path 16060"/></svg>