<svg xmlns="http://www.w3.org/2000/svg" width="20.525" height="20.528" viewBox="0 0 20.525 20.528">
  <path id="Path_16044" data-name="Path 16044" d="M-3775.127,7222.337v-1.048c.014-.07.032-.141.042-.211.05-.381.072-.768.151-1.144a10.3,10.3,0,0,1,4.442-6.613,9.637,9.637,0,0,1,7.471-1.583,10.108,10.108,0,0,1,6.193,3.814,9.768,9.768,0,0,1,2.088,7.868,10,10,0,0,1-2.761,5.432,10.179,10.179,0,0,1-5.889,3.1c-.314.049-.631.084-.947.126h-1.048c-.373-.048-.749-.081-1.119-.147a10.218,10.218,0,0,1-5.418-2.779,10.169,10.169,0,0,1-3.078-5.868C-3775.049,7222.969-3775.085,7222.652-3775.127,7222.337Zm12.974-1.476c.108-1.716-1.649-6.14-2.736-6.882a13.014,13.014,0,0,0-2.707,6.882Zm.028,1.908h-5.471a13.039,13.039,0,0,0,2.736,6.912A13.055,13.055,0,0,0-3762.125,7222.77Zm-11.048-1.916a.35.35,0,0,0,.08.019c1.157,0,2.314,0,3.471,0a.224.224,0,0,0,.154-.145c.039-.207.043-.419.074-.627a15.514,15.514,0,0,1,2-5.716c.132-.222.267-.442.407-.675A8.064,8.064,0,0,0-3773.174,7220.854Zm16.645.009a8.2,8.2,0,0,0-2.185-4.844,8.086,8.086,0,0,0-4.041-2.338,15.767,15.767,0,0,1,1.708,3.453,15.856,15.856,0,0,1,.806,3.729Zm-10.455,9.058a15.78,15.78,0,0,1-1.7-3.439,15.9,15.9,0,0,1-.8-3.715h-3.694A8.068,8.068,0,0,0-3766.983,7229.921Zm6.743-7.159a15.61,15.61,0,0,1-2.514,7.184,8.093,8.093,0,0,0,4.393-2.738,8.189,8.189,0,0,0,1.831-4.446Z" transform="translate(3775.127 -7211.549)" fill="#d1d1d1"/>
</svg>
