<svg xmlns="http://www.w3.org/2000/svg" width="32" height="32" viewBox="0 0 32 32">
  <g id="Group_1017" data-name="Group 1017" transform="translate(-987 -19)">
    <path id="Path_16030" data-name="Path 16030" d="M32,16A16,16,0,1,1,16,0,16,16,0,0,1,32,16Z" transform="translate(987 19)" fill="#1956e2" fill-opacity='0'/>
    <path id="Path_16028" data-name="Path 16028" d="M-4291.216,7229.8a3.805,3.805,0,0,1,.181-2.294,3.862,3.862,0,0,1,3.895-2.4,3.767,3.767,0,0,1,2.348,1.083.255.255,0,0,0,.268.079,7.862,7.862,0,0,0,2.068-.78c.048-.026.1-.055.143-.08a.194.194,0,0,1,.055-.007,4.141,4.141,0,0,1-1.563,2.075c.225-.04.452-.072.674-.124s.468-.122.7-.195.441-.159.712-.258c-.107.152-.183.264-.264.372a7.528,7.528,0,0,1-1.521,1.51.258.258,0,0,0-.112.244,11.089,11.089,0,0,1-2.134,6.842,10.1,10.1,0,0,1-6.158,4.108,10.94,10.94,0,0,1-8.273-1.293.71.71,0,0,1-.147-.114,7.811,7.811,0,0,0,5.581-1.591,3.929,3.929,0,0,1-3.571-2.679,3.935,3.935,0,0,0,1.707-.066,3.863,3.863,0,0,1-2.2-1.369,3.854,3.854,0,0,1-.843-2.435,3.976,3.976,0,0,0,1.69.468,3.884,3.884,0,0,1-1.13-5.095A10.981,10.981,0,0,0-4291.216,7229.8Z" transform="translate(5294.531 -7197.687)" fill="#E2E8F0"/>
  </g>
</svg>
