<svg xmlns="http://www.w3.org/2000/svg" width="32" height="32" viewBox="0 0 32 32">
  <g id="Group_1020" data-name="Group 1020" transform="translate(-950 -19)">
    <path id="Path_16042" data-name="Path 16042" d="M32,16A16,16,0,1,1,16,0,16,16,0,0,1,32,16Z" transform="translate(950 19)" fill="#1956e2"/>
    <path id="Path_16043" data-name="Path 16043" d="M-7678.947,7890.479c1.113.068,3.329.193,5.543.345.82.055,1.638.169,2.455.272a2.194,2.194,0,0,1,2.122,2.081,38.288,38.288,0,0,1,.371,5.6,39.487,39.487,0,0,1-.393,5.159,2.2,2.2,0,0,1-1.941,1.913,66.859,66.859,0,0,1-10.041.615c-1.8-.032-3.6-.165-5.4-.289-1.02-.069-2.034-.208-3.05-.323a2.21,2.21,0,0,1-1.99-2.014,35.574,35.574,0,0,1-.358-6.15c.071-1.592.23-3.182.4-4.767a2.115,2.115,0,0,1,1.84-1.794A76.253,76.253,0,0,1-7678.947,7890.479Zm-2.616,4.063a.59.59,0,0,0-.647.643q-.007,3.344,0,6.687a.572.572,0,0,0,.326.574.608.608,0,0,0,.657-.09c1.521-1.108,3.045-2.21,4.564-3.319a.583.583,0,0,0-.007-1.031q-2.279-1.664-4.567-3.314A1.556,1.556,0,0,0-7681.563,7894.542Z" transform="translate(8646.056 -7863.479)" fill="#fff"/>
  </g>
</svg>
