<svg xmlns="http://www.w3.org/2000/svg" width="30.519" height="15.671" viewBox="0 0 20.519 7.671">
  <path id="Path_16075" data-name="Path 16075" d="M7.671,1.037a1.55,1.55,0,0,1-.464.68Q4.731,4.189,2.26,6.667c-.036.036-.07.073-.144.15a.792.792,0,0,1,.146.092q2.5,2.5,5,5a1.061,1.061,0,0,1,.33.539.881.881,0,0,1-1.385.9,1.376,1.376,0,0,1-.158-.138Q3.183,10.34.32,7.472a.881.881,0,0,1-.2-1.117,1.846,1.846,0,0,1,.287-.341Q3.245,3.169,6.084.327A1.321,1.321,0,0,1,6.608,0h.364a3.955,3.955,0,0,1,.4.226.955.955,0,0,1,.3.5Z" transform="translate(0 7.671) rotate(-90)" fill="#244677"/>
</svg>
