<svg xmlns="http://www.w3.org/2000/svg" width="38.835" height="38.796" viewBox="0 0 38.835 38.796">
  <path id="Path_16077" data-name="Path 16077" d="M1199.919,39.1a3.755,3.755,0,0,1,1.567,1.095c1.8,1.817,3.615,3.619,5.422,5.429a2.127,2.127,0,0,1,0,3.282q-5.28,5.283-10.564,10.563a2.1,2.1,0,0,1-3.217.029q-2.932-2.894-5.845-5.809a2.123,2.123,0,0,1,0-3.2q5.321-5.329,10.642-10.658a3.645,3.645,0,0,1,1.191-.728Zm-21.691,34.365a3.009,3.009,0,0,0,1.591,1.73c1.331.722,2.652,1.465,3.94,2.258a2.457,2.457,0,0,0,2.808.005c1.422-.861,2.875-1.671,4.323-2.487a2.256,2.256,0,0,0,1.221-2.128c-.006-1.651-.021-3.3.005-4.952a2.412,2.412,0,0,0-1.36-2.339c-1.457-.8-2.9-1.634-4.327-2.481a2.278,2.278,0,0,0-2.52,0c-1.3.774-2.614,1.531-3.943,2.256a3.157,3.157,0,0,0-1.739,1.8Zm1.387-4.965a2.09,2.09,0,0,1,1.089-1.911c1.1-.634,2.215-1.245,3.316-1.879a2.156,2.156,0,0,1,2.3,0c1.089.627,2.187,1.239,3.282,1.857a1.982,1.982,0,0,1,1.094,1.7,38.983,38.983,0,0,1-.023,4.175A1.91,1.91,0,0,1,1189.647,74c-1.135.656-2.28,1.294-3.424,1.935a2.072,2.072,0,0,1-2.161-.018c-1.081-.614-2.158-1.235-3.246-1.838a2.174,2.174,0,0,1-1.2-2.05c0-.582,0-1.163,0-1.745S1179.609,69.1,1179.615,68.5Zm36.815-2.194q-1.569-1.561-3.13-3.131-4.507-4.51-9.008-9.026c-.284-.286-.432-.27-.7.01-.649.69-1.322,1.359-2.009,2.011-.264.25-.275.388-.006.655q6.046,6.015,12.07,12.053c.086.086.168.178.262.255a1.828,1.828,0,0,0,2.007.31,1.866,1.866,0,0,0,1.142-1.64A2.051,2.051,0,0,0,1216.43,66.308ZM1189.164,44.35c.327.36.669.707,1.014,1.05.128.127.221,0,.3-.081.766-.765,1.527-1.536,2.3-2.294.163-.16.13-.255-.016-.391-.248-.23-.478-.48-.721-.715a.75.75,0,0,0-1.2-.008c-.506.489-1,.994-1.5,1.49a.958.958,0,0,0-.3.634A.874.874,0,0,0,1189.164,44.35ZM1180.995,72a.9.9,0,0,0,.513.886q1.581.87,3.14,1.779a.921.921,0,0,0,1.023.008c1.041-.6,2.087-1.2,3.142-1.775a.927.927,0,0,0,.529-.883c0-1.136,0-2.273,0-3.409a.931.931,0,0,0-.518-.89c-1.04-.576-2.08-1.155-3.1-1.759a1,1,0,0,0-1.13.019c-1.025.6-2.064,1.183-3.1,1.758a.853.853,0,0,0-.489.816c.005.6,0,1.191,0,1.786C1181,70.892,1181.006,71.447,1180.995,72Z" transform="translate(-1178.228 -39.103)" fill="#fff"/>
</svg>
