<svg xmlns="http://www.w3.org/2000/svg" width="38.833" height="38.834" viewBox="0 0 38.833 38.834">
  <path id="Path_16078" data-name="Path 16078" d="M1813.744-54.341q-3.834,0-7.667,0a4.215,4.215,0,0,1-4.242-4.222s0-5.078,0-7.6q0-1.167,0-2.334c0-1.726,0-3.511.005-5.265a4.193,4.193,0,0,1,.919-2.633,4.189,4.189,0,0,1,2.368-1.466,4.284,4.284,0,0,1,.94-.1c2.968,0,6.007-.007,9.033-.007q3.06,0,6.121,0a4.2,4.2,0,0,1,4.24,4.24c0,5.415,0,10.372,0,15.154a4.188,4.188,0,0,1-4.227,4.228Q1817.488-54.341,1813.744-54.341Zm2.887-3.348h1.991a3.371,3.371,0,0,0,3.486-3.473c0-3.524,0-6.79,0-9.985a3.464,3.464,0,0,0-1-2.486,3.506,3.506,0,0,0-2.494-.985h-9.933a3.509,3.509,0,0,0-2.5.99,3.49,3.49,0,0,0-1,2.5q0,4.966,0,9.933a3.394,3.394,0,0,0,3.506,3.506h7.943Zm-26.653-16.39q0-6.125,0-12.25a3.381,3.381,0,0,1,3.494-3.494h16.7a4.182,4.182,0,0,0-1.237-2.206,4.148,4.148,0,0,0-2.845-1.142c-1.9,0-3.927,0-6.191,0-2.927,0-5.9,0-8.781,0h-.309a3.812,3.812,0,0,0-.657.056,4.2,4.2,0,0,0-3.519,4.2c0,5.161,0,10.31,0,15.1a5.116,5.116,0,0,0,.037.584,4.221,4.221,0,0,0,3.311,3.6Zm7.6,7.611q0-6.105,0-12.211a3.394,3.394,0,0,1,3.552-3.541h16.64a4.19,4.19,0,0,0-1.24-2.209,4.125,4.125,0,0,0-2.822-1.136c-2.559-.007-5.173-.01-7.769-.01-2.482,0-5.017,0-7.535.009a4.194,4.194,0,0,0-4.173,4.18c-.009,4.5-.009,9.347,0,15.254a4.182,4.182,0,0,0,2.955,4c.138.043.268.078.392.106Z" transform="translate(-1786.629 93.175)" fill="#fff"/>
</svg>
