<svg xmlns="http://www.w3.org/2000/svg" width="17.467" height="17.47" viewBox="0 0 17.467 17.47">
  <path id="Path_16069" data-name="Path 16069" d="M7410.612,2547.867c-.3-.044-.594-.078-.887-.135a8.623,8.623,0,0,1-6.139-4.433,8.3,8.3,0,0,1-1.06-4.176.714.714,0,0,1,.733-.727.733.733,0,0,1,.732.738,6.711,6.711,0,0,0,.648,3,7.082,7.082,0,0,0,5.419,4.161,7.265,7.265,0,0,0,2.767-14.26,11.193,11.193,0,0,0-1.553-.167.778.778,0,0,1-.756-.689.748.748,0,0,1,.549-.762.583.583,0,0,1,.15-.02,8.733,8.733,0,0,1,8.57,6.849c.082.387.12.784.18,1.176a.253.253,0,0,0,.026.061v1.3c-.025.19-.049.38-.077.569a8.77,8.77,0,0,1-7.121,7.383c-.294.053-.592.09-.887.135Zm1.38-13.716a1.708,1.708,0,0,0-.016-.255.733.733,0,0,0-1.448.213q0,2.192,0,4.384a.255.255,0,0,1-.166.271c-.774.378-1.544.767-2.313,1.154a.733.733,0,1,0,.654,1.31c.93-.461,1.854-.932,2.786-1.388a.813.813,0,0,0,.5-.81c-.008-.813,0-1.626,0-2.439S7411.993,2534.964,7411.992,2534.151Zm-4.529-2.423a.743.743,0,0,0,.73.744.753.753,0,0,0,.735-.743.729.729,0,0,0-.743-.726A.719.719,0,0,0,7407.463,2531.729Zm-3.591,5.075a.751.751,0,0,0,.728-.733.733.733,0,1,0-.728.733Zm1.73-2.6a.739.739,0,0,0,.732-.727.728.728,0,0,0-.725-.729.728.728,0,1,0-.008,1.455Z" transform="translate(-7402.527 -2530.397)" fill="#1956e2"/>
</svg>
