<svg xmlns="http://www.w3.org/2000/svg" width="15.902" height="16.325" viewBox="0 0 15.902 16.325">
  <path id="delete" d="M-908.14,844.958a.65.65,0,0,0-.652-.4h-3.8c0-.329,0-.642,0-.955a1.033,1.033,0,0,0-.372-.832,3.312,3.312,0,0,0-.553-.3h-5.115c-.007.007-.014.018-.023.021a1.136,1.136,0,0,0-.9,1.224c0,.275,0,.55,0,.832-.061,0-.1.007-.144.007h-2.029c-.543,0-1.087,0-1.63,0a.607.607,0,0,0-.641.593.6.6,0,0,0,.635.6c.128,0,.256,0,.384,0h13.326c.351,0,.7.011,1.054-.016A.554.554,0,0,0-908.14,844.958Zm-5.642-.413h-4.574v-.877h4.574Zm3.271,6.013q0,.8,0,1.6h0q0,2.293,0,4.586a1.986,1.986,0,0,1-2,2.05q-3.556.017-7.112,0a1.965,1.965,0,0,1-1.964-1.635,3.519,3.519,0,0,1-.039-.684q0-4.442,0-8.885a.661.661,0,0,1,.341-.682.577.577,0,0,1,.833.526c0,1.15,0,2.3,0,3.452q0,2.94,0,5.88a.851.851,0,0,0,.9.89h7.032a.832.832,0,0,0,.864-.865q0-4.626,0-9.252a.6.6,0,0,1,.449-.652.544.544,0,0,1,.693.539Q-910.509,848.993-910.511,850.559Zm-4.377,2.986q0-.719,0-1.437,0-1.8,0-3.61a1.141,1.141,0,0,1,.037-.33.546.546,0,0,1,.54-.37.567.567,0,0,1,.5.423,1.066,1.066,0,0,1,.024.237q0,3.658,0,7.315a.963.963,0,0,1-.046.312.543.543,0,0,1-.581.351.577.577,0,0,1-.477-.576C-914.889,855.089-914.888,854.317-914.888,853.545Zm-2.3-2.694q0,.639,0,1.278,0,1.837,0,3.674a.876.876,0,0,1-.035.266.552.552,0,0,1-.539.373.569.569,0,0,1-.508-.437,1.056,1.056,0,0,1-.024-.221q0-3.682,0-7.363a.579.579,0,0,1,.4-.6.562.562,0,0,1,.7.557C-917.19,849.2-917.193,850.026-917.192,850.851Z" transform="translate(923.995 -842.476)" fill="#fd2f7a"/>
</svg>
