<svg xmlns="http://www.w3.org/2000/svg" width="16.818" height="16.767" viewBox="0 0 16.818 16.767">
  <path id="edit" d="M4108.629-2545.608c.108-.642.212-1.267.317-1.892.161-.961.317-1.922.485-2.882a.6.6,0,0,1,.16-.295q4.247-4.339,8.5-8.67c.778-.793,1.551-1.592,2.335-2.378a2.059,2.059,0,0,1,2.943.012c.288.288.57.583.854.874.2.208.4.416.609.622a2.082,2.082,0,0,1,.005,2.949q-3.082,3.134-6.166,6.267-2.361,2.4-4.721,4.8a.437.437,0,0,1-.3.15c-.85.069-1.7.149-2.549.226l-2.383.217C4108.7-2545.606,4108.678-2545.608,4108.629-2545.608Zm1.693-1.58c.2-.016.373-.029.548-.044.7-.062,1.4-.127,2.1-.184a.446.446,0,0,0,.3-.151q4.094-4.17,8.193-8.335c.03-.031.059-.064.114-.123l-2.43-2.321c-.225.212-.5.454-.75.712q-3.766,3.824-7.524,7.654a.546.546,0,0,0-.142.266c-.094.52-.176,1.043-.261,1.565C4110.419-2547.836,4110.374-2547.524,4110.322-2547.188Zm12.179-9.892c.452-.417.9-.813,1.328-1.23a.633.633,0,0,0,0-.894q-.735-.769-1.486-1.521a.589.589,0,0,0-.845-.017c-.441.426-.867.867-1.31,1.313Zm2.919,10.093H4115.6v1.417h9.815Z" transform="translate(-4108.629 2562.338)" fill="#fff"/>
</svg>
