<svg xmlns="http://www.w3.org/2000/svg" width="21.979" height="19.993" viewBox="0 0 21.979 19.993">
  <path id="Path_16100" data-name="Path 16100" d="M-4845.069-4305.055a5.425,5.425,0,0,1-1.244-.554c-1.025-.5-2.043-1.021-3.065-1.529a1.015,1.015,0,0,1-.61-.981q0-3,0-5.995a.325.325,0,0,0-.07-.2q-3.81-4.513-7.63-9.018a1.03,1.03,0,0,1,.065-1.481,1.022,1.022,0,0,1,.635-.236c.035,0,.07,0,.105,0h19.8a.994.994,0,0,1,.992.589.945.945,0,0,1-.148,1.062c-.618.74-1.243,1.473-1.865,2.209q-2.911,3.441-5.819,6.885a.314.314,0,0,0-.064.187q0,3.969,0,7.938a1,1,0,0,1-.894,1.11.089.089,0,0,0-.02.013Zm5.907-17.979h-15.652l.1.122q3.205,3.789,6.412,7.577a1.261,1.261,0,0,1,.315.864c-.007,1.889,0,3.777-.006,5.666a.176.176,0,0,0,.115.186c.591.291,1.179.587,1.768.881.036.018.073.032.122.053v-.162q0-3.341,0-6.685a1.086,1.086,0,0,1,.257-.732l5.669-6.7Z" transform="translate(4857.972 4325.048)" fill="#d1d1d1"/>
</svg>
