<svg xmlns="http://www.w3.org/2000/svg" width="14.079" height="17.233" viewBox="0 0 14.079 17.233">
  <path id="flag" d="M3935.014,524.355c.288.043.577.078.864.13a12.878,12.878,0,0,1,2.46.807,7.867,7.867,0,0,0,1.9.584,5.861,5.861,0,0,0,2.759-.267,2.017,2.017,0,0,0,.485-.283.777.777,0,0,1,.843-.1.731.731,0,0,1,.444.7q0,4.7,0,9.4a.8.8,0,0,1-.393.684,4.444,4.444,0,0,1-1.555.661,7.906,7.906,0,0,1-4.86-.38c-.722-.29-1.45-.579-2.2-.8a5.6,5.6,0,0,0-3.3.134.262.262,0,0,0-.212.3q.013,2.392,0,4.785a1.089,1.089,0,0,1-.13.5.707.707,0,0,1-.691.366.764.764,0,0,1-.67-.44c-.024-.047-.051-.092-.076-.138V525.749a1.214,1.214,0,0,1,.594-.64,5.371,5.371,0,0,1,1.912-.64c.3-.047.6-.076.9-.114Zm8.18,2.834c-.075.02-.133.037-.191.051a8.07,8.07,0,0,1-3.265.168,11.66,11.66,0,0,1-2.435-.761,7.853,7.853,0,0,0-2.393-.694,6.158,6.158,0,0,0-2.453.295.257.257,0,0,0-.2.289q.008,3.667,0,7.333v.185a.547.547,0,0,0,.068-.006c.041-.01.082-.023.123-.033a8.068,8.068,0,0,1,3.265-.168,11.65,11.65,0,0,1,2.435.761,7.857,7.857,0,0,0,2.393.694,6.16,6.16,0,0,0,2.453-.295.256.256,0,0,0,.2-.289q-.008-3.667,0-7.333Z" transform="translate(-3930.688 -524.355)" fill="#fff"/>
</svg>
