<svg xmlns="http://www.w3.org/2000/svg" width="20.237" height="20.237" viewBox="0 0 20.237 20.237">
  <path id="pause" d="M1194.67-79.776a10.053,10.053,0,0,0-7.155-2.964,10.052,10.052,0,0,0-7.155,2.964,10.052,10.052,0,0,0-2.964,7.155,10.052,10.052,0,0,0,2.964,7.155,10.052,10.052,0,0,0,7.155,2.964,10.053,10.053,0,0,0,7.155-2.964,10.053,10.053,0,0,0,2.964-7.155A10.053,10.053,0,0,0,1194.67-79.776Zm-.95,13.36a8.718,8.718,0,0,1-6.2,2.57,8.717,8.717,0,0,1-6.2-2.57,8.717,8.717,0,0,1-2.57-6.2,8.717,8.717,0,0,1,2.57-6.2,8.717,8.717,0,0,1,6.2-2.57,8.718,8.718,0,0,1,6.2,2.57,8.718,8.718,0,0,1,2.57,6.2A8.718,8.718,0,0,1,1193.72-66.417Zm-8.25-2.633h0a1.132,1.132,0,0,1-1.132-1.132v-4.879a1.132,1.132,0,0,1,1.132-1.132h0a1.132,1.132,0,0,1,1.132,1.132v4.879A1.132,1.132,0,0,1,1185.47-69.05Zm4.091,0h0a1.132,1.132,0,0,1-1.132-1.132v-4.879a1.132,1.132,0,0,1,1.132-1.132h0a1.132,1.132,0,0,1,1.132,1.132v4.879A1.132,1.132,0,0,1,1189.561-69.05Z" transform="translate(-1177.397 82.74)" fill="#fff"/>
</svg>
