<svg xmlns="http://www.w3.org/2000/svg" width="44.23" height="44.23" viewBox="0 0 44.23 44.23">
  <path id="Path_16076" data-name="Path 16076" d="M186.683,42h.864a1.8,1.8,0,0,1,.964,1.879c-.053,1.321-.014,2.647-.012,3.97,0,.139.013.277.015.33,8.337,1.417,13.141,6.239,14.538,14.555,1.4,0,2.852.039,4.3-.015a1.8,1.8,0,0,1,1.878.965v.777a1.6,1.6,0,0,1-1.733,1.048c-1.308-.044-2.619-.011-3.929-.011h-.515c-1.416,8.342-6.232,13.158-14.556,14.556,0,1.4-.038,2.849.015,4.3a1.806,1.806,0,0,1-.965,1.878h-.864a1.8,1.8,0,0,1-.964-1.878c.056-1.307.015-2.618.015-3.927v-.37c-8.346-1.43-13.162-6.241-14.555-14.559-1.4,0-2.851-.038-4.3.015A1.8,1.8,0,0,1,165,64.547v-.864a1.786,1.786,0,0,1,1.877-.965c1.307.052,2.618.014,3.928.015h.372c1.421-8.353,6.241-13.16,14.556-14.555,0-1.4.036-2.853-.014-4.3A1.792,1.792,0,0,1,186.683,42Zm-.95,9.084A13.083,13.083,0,0,0,174.1,62.734h4.617a1.385,1.385,0,1,1,.01,2.764q-2.095,0-4.19,0h-.454a13.045,13.045,0,0,0,11.654,11.615c0-1.555,0-3.108,0-4.662a1.381,1.381,0,1,1,2.761-.009c0,1.411,0,2.822,0,4.233v.47A13.07,13.07,0,0,0,200.13,65.5h-.471c-1.4,0-2.793,0-4.19,0a1.382,1.382,0,1,1,0-2.762c1.425,0,2.851,0,4.276,0,.135,0,.27-.013.407-.02A13.03,13.03,0,0,0,188.5,51.12q0,2.311,0,4.618a1.384,1.384,0,1,1-2.763,0q0-2.095,0-4.19Zm1.327,14.758a1.728,1.728,0,1,0-1.673-1.76A1.7,1.7,0,0,0,187.061,65.842Z" transform="translate(-165 -42)" fill="#fff"/>
</svg>
